/* XPM */
static char *south[] = {
/* columns rows colors chars-per-pixel */
"57 67 9 1 ",
"  c black",
". c #1D1D1D",
"X c #373737",
"o c gray33",
"O c #747474",
"+ c #959595",
"@ c #B7B7B7",
"# c #DADADA",
"$ c white",
/* pixels */
"$$$$$$$$$$$$$$$$$$$$$$$$$$$$$$$$$$$$$$$$$$$$$$$$$$$$$$$$$",
"$$$$$$$$$$$$$$$$$$$$$$$$$$$$$$$$$$$$$$$$$$$$$$$$$$$$$$$$$",
"$$$$$$$$$$$$$$$$$$$$$$$$$$$$$$$$$$$$$$$$$$$$$$$$$$$$$$$$$",
"$$$$$$$$$$$$$$$$$$$$$$$$$$$$$$$$$$$$$$$$$$$$$$$$$$$$$$$$$",
"$$$$$$$$$$$$$$$$$$$$$$$$$$$$$$$$$$$$$$$$$$$$$$$$$$$$$$$$$",
"$$$$$$$$$$$$$$$$$$$$$$$$$$$$$$$$$$$$$$$$$$$$$$$$$$$$$$$$$",
"$$$$$$$$$$$$$$$$$$$$$$$$$$$$$$$$$$$$$$$$$$$$$$$$$$$$$$$$$",
"$$$$$$$$$$$$$$$$$$$$$$$$$$$$$$$$$$$$$$$$$$$$$$$$$$$$$$$$$",
"$$$$$$$$$$$$$$$$$$$$$$$$$##$$$$$$$$$$$$$$$$$$$$$$$$$$$$$$",
"$$$$$$$$$$$$$$$$$$$$$$+X   X#$$$$$$$$$$$$$$$$$$$$$$$$$$$$",
"$$$$$$$$$$$$$$$$$$$$$X       +$$$$$$$$$$$$$$$$$$$$$$$$$$$",
"$$$$$$$$$$$$$$$$$$$$$$#.      +$$$$$$$$$$$$$$$$$$$$$$$$$$",
"$$$$$$$$$$$$$$$$$$$$$$$#.     .$$$$$$$$$$$$$$$$$$$$$$$$$$",
"$$$$$$$$$$$$$$$$$$$$$$$$o     o$$$$$$$$$$$$$$$$$$$$$$$$$$",
"$$$$$$$$$$$$$$$$$$$$$$$$+     o$$$$$$$$$$$$$$$$$$$$$$$$$$",
"$$$$$$$$$$$$$$$$$$$$$$$$+     O$$$$$$$$$$$$$$$$$$$$$$$$$$",
"$$$$$$$$$$$$$$$$$$$$$$$$+     oO.XXO@$$$$$$$$$$$$$$$$$$$$",
"$$$$$$$$$$$$$$$$$$$$$$$$O            X@$$$$$$$$$$$$$$$$$$",
"$$$$$$$$$$$$$@+@$$$$$$$$o              O$$$$$$$$$$$$$$$$$",
"$$$$$$$$$$$$$@.  ......                 @$$$$$$$$$$$$$$$$",
"$$$$$$$$$$$$$$#X                        #$$$$$$$$$$$$$$$$",
"$$$$$$$$$$$$$$$$O                    .o#$$$$$$$$$$$$$$$$$",
"$$$$$$$$$$$$$$$$$#X             .XoO@$$$$$$$$$$$$$$$$$$$$",
"$$$$$$$$$$$$$$$$$$$@oX.      X+#$$$$$$$$$$$$$$$$$$$$$$$$$",
"$$$$$$$$$$$$$$$$$$$$$$o      #$$$$$$$$$$$$$$$$$$$$$$$$$$$",
"$$$$$$$$$$$$$$$$$$$$$+      +$$$$$$$$$$$$$$$$$$$$$$$$$$$$",
"$$$$$$$$$$$$$$$$$$$$@      o$$$$$$$$$$$$$$$$$$$$$$$$$$$$$",
"$$$$$$$$$$$$$$$$$#$@      X@@++OoooooO+@#$$$$$$$$$$$$$$$$",
"$$$$$$$$$$$$$$$$$+O                      .o+$$$$$$$$$$$$$",
"$$$$$$$$$$$$$$$$@X                ..X.      .+$$$$$$$$$$$",
"$$$$$$$$$$$$$$+.       X.ooo.    X$$$$$O      X#$$$$$$$$$",
"$$$$$$$XO$$$$$$@o.   .#o.$$$o    O$$$$$$#X     o$$$$$$$$$",
"$$$$$$$o o$$$$$$$+      +$$+    .#$$$$$$$@      #$$$$$$$$",
"$$$$$$$+  O$$$$$$@     .$$@     @$$$$$$$$#      @$$$$$$$$",
"$$$$$$$#   O$$$$$$.    @$+     +$$$$$$$$$@      +$$$$$$$$",
"$$$$$$$$    @$$$$$#.  .Oo     X@$$$$$$$$$@      +$$$$$$$$",
"$$$$$$$$X   X$$$$$@             O$$$$$$$$@      +$$$$$$$$",
"$$$$$$$$o    #$$$$@             O$$$$$$$$+      @$$$$$$$$",
"$$$$$$$$O    O$$$$$.           X$$$$$$$$$+      @$$$$$$$$",
"$$$$$$$$+    X$$$$$#OXXX     .@$$$$$$$$$$O      #$$$$$$$$",
"$$$$$$$$@     $$$$$$$$@.    .@$$$$$$$$$$$o     .$$$$$$$$$",
"$$$$$$$$#     #$$$$$#o         Xo@$$$$$$$X     X$$$$$$$$$",
"$$$$$$$$$     +$$$#O  oO          #$$$$$$      O$$$$$$$$$",
"$$$$$$$$$     O$#X   .            #$$$$$@      @$$$$$$$$$",
"$$$$$$$$$X    o$O              .X@$$$$$$o      $$$$$$$$$$",
"$$$$$$$$$o    .$+           O@$$$$$$$$$$      o$$$$$$$$$$",
"$$$$$$$$$O     $$o   Xoo    #$$$$$$$$$$O      +$$$$$$$$$$",
"$$$$$$$$$+     #$$##$$$+    $$$$$$$$$$@       $$$$$$$$$$$",
"$$$$$$$$$#     +$$$$$$$O   .$$$$$$$$$#.      o$$$$$$$$$$$",
"$$$$$$$$$$     O$$$$$$$O   X$$$$$$$$#.       @$$$$$$$$$$$",
"$$$$$$$$$$o    O$$$$$$$O   o$$o$$$$@.       X$$$$$$$$$$$$",
"$$$$$$$$$$@    +$$$$$$$o   O$$..X..         +$$$$$$$$$$$$",
"$$$$$$$$$$$O   @$$$$$$$O   O$$O            X$$$$$$$$$$$$$",
"$$$$$$$$$$$$@O+$$$$$$$$@   +$$$.           @$$$$$$$$$$$$$",
"$$$$$$$$$$$$$$$$$$$$$$$$o  @$$$#          o$$$$$$$$$$$$$$",
"$$$$$$$$$$$$$$$$$$$$$$$$$+X$$$$$@.       .#$$$$$$$$$$$$$$",
"$$$$$$$$$$$$$$$$$$$$$$$$$$$$$$$$$#X      @$$$$$$$$$$$$$$$",
"$$$$$$$$$$$$$$$$$$$$$$$$$$$$$$$$$$$+.  X#$$$$$$$$$$$$$$$$",
"$$$$$$$$$$$$$$$$$$$$$$$$$$$$$$$$$$$$$@#$$$$$$$$$$$$$$$$$$",
"$$$$$$$$$$$$$$$$$$$$$$$$$$$$$$$$$$$$$$$$$$$$$$$$$$$$$$$$$",
"$$$$$$$$$$$$$$$$$$$$$$$$$$$$$$$$$$$$$$$$$$$$$$$$$$$$$$$$$",
"$$$$$$$$$$$$$$$$$$$$$$$$$$$$$$$$$$$$$$$$$$$$$$$$$$$$$$$$$",
"$$$$$$$$$$$$$$$$$$$$$$$$$$$$$$$$$$$$$$$$$$$$$$$$$$$$$$$$$",
"$$$$$$$$$$$$$$$$$$$$$$$$$$$$$$$$$$$$$$$$$$$$$$$$$$$$$$$$$",
"$$$$$$$$$$$$$$$$$$$$$$$$$$$$$$$$$$$$$$$$$$$$$$$$$$$$$$$$$",
"$$$$$$$$$$$$$$$$$$$$$$$$$$$$$$$$$$$$$$$$$$$$$$$$$$$$$$$$$",
"$$$$$$$$$$$$$$$$$$$$$$$$$$$$$$$$$$$$$$$$$$$$$$$$$$$$$$$$$"
};
