/* XPM */
static char *east[] = {
/* columns rows colors chars-per-pixel */
"60 68 9 1 ",
"  c black",
". c #1D1D1D",
"X c #373737",
"o c gray33",
"O c #747474",
"+ c #959595",
"@ c #B7B7B7",
"# c #DADADA",
"$ c white",
/* pixels */
"$$$$$$$$$$$$$$$$$$$$$$$$$$$$$$$$$$$$$$$$$$$$$$$$$$$$$$$$$$$$",
"$$$$$$$$$$$$$$$$$$$$$$$$$$$$$$$$$$$$$$$$$$$$$$$$$$$$$$$$$$$$",
"$$$$$$$$$$$$$$$$$$$$$$$$$$$$$$$$$$$$$$$$$$$$$$$$$$$$$$$$$$$$",
"$$$$$$$$$$$$$$$$$$$$$$$$$$$$$$$$$$$$$$$$$$$$$$$$$$$$$$$$$$$$",
"$$$$$$$$$$$$$$$$$$$$$$$$$$$$$$$$$$$$$$$$$$$$$$$$$$$$$$$$$$$$",
"$$$$$$$$$$$$$$$$$$$$$$$$$$$$$$$$$$$$$$$$$$$$$$$$$$$$$$$$$$$$",
"$$$$$$$$$$$$$$$$$$$$$$$$$$#@#$$$$$$$$$$$$$$$$$$$$$$$$$$$$$$$",
"$$$$$$$$$$$$$$$$$$$$$$$$$+   X#$$$$$$$$$$$$$$$$$$$$$$$$$$$$$",
"$$$$$$$$$$$$$$$$$$$$$$$$$.    o$$$$$$$$$$$$$$$$$$$$$$$$$$$$$",
"$$$$$$$$$$$$$$$$$$$$$$$$#     .$$$$$$$$$$$$$$$$$$$$$$$$$$$$$",
"$$$$$$$$$$$$$$$$$$$$$$$$$      $$$$$$$$$$$$$$$$$$$$$$$$$$$$$",
"$$$$$$$$$$$$$$$$$$$$$$$$$o     $$$$$$$$$$$$$$$$$$$$$$$$$$$$$",
"$$$$$$$$$$$$$$$$$$$$$$$$$O    .$#@#$$$$$$$$$$$$$$$$$$$$$$$$$",
"$$$$$$$$$$$$$$$$$$$$$$$$$+    XO   .o+#$$$$$$$$$$$$$$$$$$$$$",
"$$$$$$$$$$$$$$@o+#$$$$$$$O             O$$$$$$$$$$$$$$$$$$$$",
"$$$$$$$$$$$$$$$+   ....                 #$$$$$$$$$$$$$$$$$$$",
"$$$$$$$$$$$$$$$$@.                    X@$$$$$$$$$$$$$$$$$$$$",
"$$$$$$$$$$$$$$$$$$O                o+#$$$$$$$$$$$$$$$$$$$$$$",
"$$$$$$$$$$$$$$$$$$$#+oXX       XO@$$$$$$$$$$$$$$$$$$$$$$$$$$",
"$$$$$$$$$$$$$$$$$$$$$$@X      +$$$$$$$$$$$$$$$$$$$$$$$$$$$$$",
"$$$$$$$$$$$$$$$$$$$$@X  .     @$$$$$$$$$$$$$$$$$$$$$$$$$$$$$",
"$$$$$$$$$$$$$$$$$$@X o+#$X    ++++OOO++#$$$$$$$$$$$$$$$$$$$$",
"$$$$$$$$$$$$$$$$+.X+$$$$#X              O$$$$$$$$$$$$$$$$$$$",
"$$$$$$$$$$$$$$@XX@$$$$$@.          ..    X#$$$$$$$$$$$$$$$$$",
"$$$$$$$$$$$$$O.+$$$$$$O       o+@#$$$o     @$$$$$$$$$$$$$$$$",
"$$$$$$$$$$$$oX#$$$$$$XX+@.    $$$$$$$+     .$$$$$$$$$$$$$$$$",
"$$$$$$$$$$$Oo$$$$$$$XO$$$.    $$$$$$$+      +$$$$$$$$$$$$$$$",
"$$$$$$$$$$#  +$$$$$O+$$$$     O+$$$$$o      +$$$$$$$$$$$$$$$",
"$$$$$$$$$$#   O$$$#o$$#+o       .#$$$X      @$$$$$$$$$$$$$$$",
"$$$$$$$$$$#    o$$OXo.         .+$$$#       $$$$$$$$$$$$$$$$",
"$$$$$$$$$$$     o#o@OX        o#$$$$O      X$$$$$$$$$$$$$$$$",
"$$$$$$$$$$$X     .o$$$$#+    .$O$$$#.      +$$$$$$$$$$$$$$$$",
"$$$$$$$$$$$O      X$$$$$X    .# X$$o      .$$$$$$$$$$$$$$$$$",
"$$$$$$$$$$$#.     .$$$#X     .+  X+       +$$$$$$$$$$$$$$$$$",
"$$$$$$$$$$$$@      $$+.                  X$$$$$$$$$$$$$$$$$$",
"$$$$$$$$$$$$$@.    o.                    @$$$$$$$$$$$$$$$$$$",
"$$$$$$$$$$$$$$#O.             oOX       O$$$$$$$$$$$$$$$$$$$",
"$$$$$$$$$$$$$$$$$$@          .$$$X     X$$$$$$$$$$$$$$$$$$$$",
"$$$$$$$$$$$$$$$$$$@oo        X$$$$o   X$$$$$$$$$$$$$$$$$$$$$",
"$$$$$$$$$$$$$$$$$O+#.        X$$$$$@OO#$$$$$$$$$$$$$$$$$$$$$",
"$$$$$$$$$$$$$$$$oO#.         o$$$$$$$$$$$$$$$$$$$$$$$$$$$$$$",
"$$$$$$$$$$$$$$$O.@           o$$$$$$$$$$$$$$$$$$$$$$$$$$$$$$",
"$$$$$$$$$$$$$$# .    .         XO@#$$$$$$$$$$$$$$$$$$$$$$$$$",
"$$$$$$$$$$$$$$o     o#$@X          .o+#$$$$$$$$$$$$$$$$$$$$$",
"$$$$$$$$$$$$$@     O$$$$$              XO@$$$$$$$$$$$$$$$$$$",
"$$$$$$$$$$$$o     O$$$$$$    o#OX         .O#$$$$$$$$$$$$$$$",
"$$$$$$$$$$#X     o$$$$$$$    X$$$#O.         X+$$$$$$$$$$$$$",
"$$$$$$$$$+       .$$$$$$$    .$$$$$$+X         .+$$$$$$$$$$$",
"$$$$$$$$O     Oo  o$$$$$$    .$$$$$$$$@X         o$$$$$$$$$$",
"$$$$$$$#     +$#   O$$$$$    .$$$$$$$$$$@X        +$$$$$$$$$",
"$$$$$$$$.  .@$$$O   o$$$$     $$$$$$$$$$$$@.      .$$$$$$$$$",
"$$$$$$$$@XO$$$$$$X   X#$$     $$$$$$$$$$$$$$+.     $$$$$$$$$",
"$$$$$$$$$$$$$$$$$#.    oo     #$$$$$$$$$$$$$$$@o  X$$$$$$$$$",
"$$$$$$$$$$$$$$$$$$@           #$$$$$$$$$$$$$$$$$$#$$$$$$$$$$",
"$$$$$$$$$$$$$$$$$$$@          #$$$$$$$$$$$$$$$$$$$$$$$$$$$$$",
"$$$$$$$$$$$$$$$$$$$$@         #$$$$$$$$$$$$$$$$$$$$$$$$$$$$$",
"$$$$$$$$$$$$$$$$$$$$$@        #$$$$$$$$$$$$$$$$$$$$$$$$$$$$$",
"$$$$$$$$$$$$$$$$$$$$$$@.      #$$$$$$$$$$$$$$$$$$$$$$$$$$$$$",
"$$$$$$$$$$$$$$$$$$$$$$$#o     $$$$$$$$$$$$$$$$$$$$$$$$$$$$$$",
"$$$$$$$$$$$$$$$$$$$$$$$$$+.  O$$$$$$$$$$$$$$$$$$$$$$$$$$$$$$",
"$$$$$$$$$$$$$$$$$$$$$$$$$$#+@$$$$$$$$$$$$$$$$$$$$$$$$$$$$$$$",
"$$$$$$$$$$$$$$$$$$$$$$$$$$$$$$$$$$$$$$$$$$$$$$$$$$$$$$$$$$$$",
"$$$$$$$$$$$$$$$$$$$$$$$$$$$$$$$$$$$$$$$$$$$$$$$$$$$$$$$$$$$$",
"$$$$$$$$$$$$$$$$$$$$$$$$$$$$$$$$$$$$$$$$$$$$$$$$$$$$$$$$$$$$",
"$$$$$$$$$$$$$$$$$$$$$$$$$$$$$$$$$$$$$$$$$$$$$$$$$$$$$$$$$$$$",
"$$$$$$$$$$$$$$$$$$$$$$$$$$$$$$$$$$$$$$$$$$$$$$$$$$$$$$$$$$$$",
"$$$$$$$$$$$$$$$$$$$$$$$$$$$$$$$$$$$$$$$$$$$$$$$$$$$$$$$$$$$$",
"$$$$$$$$$$$$$$$$$$$$$$$$$$$$$$$$$$$$$$$$$$$$$$$$$$$$$$$$$$$$"
};
