/* XPM */
static char *north[] = {
/* columns rows colors chars-per-pixel */
"62 64 9 1 ",
"  c black",
". c #1D1D1D",
"X c #373737",
"o c gray33",
"O c #747474",
"+ c #959595",
"@ c #B7B7B7",
"# c #DADADA",
"$ c white",
/* pixels */
"$$$$$$$$$$$$$$$$$$$$$$$$$$$$$$$$$$$$$$$$$$$$$$$$$$$$$$$$$$$$$$",
"$$$$$$$$$$$$$$$$$$$$$$$$$$$$$$$$$$$$$$$$$$$$$$$$$$$$$$$$$$$$$$",
"$$$$$$$$$$$$$$$$$$$$$$$$$$$$$$$$$$$$$$$$$$$$$$$$$$$$$$$$$$$$$$",
"$$$$$$$$$$$$$$$$$$$$$$$$$$$$$$$$$$$$$$$$$$$$$$$$$$$$$$$$$$$$$$",
"$$$$$$$$$$$$$$$$$$$$$$$$$$$$$$$$$$$$$$$$$$$$$$$$$$$$$$$$$$$$$$",
"$$$$$$$$$$$$$$$$$$$$$$$$$$$$$$$$$$$$$$$$$$$$$$$$$$$$$$$$$$$$$$",
"$$$$$$$$$$$$$$$$$$$$$$$$$$$$$$$$$$$$$$$$$$$$$$$$$$$$$$$$$$$$$$",
"$$$$$$$$$$$$$$$$$$$$$$$$$$$$$$$$@@@$$$$$$$$$$$$$$$$$$$$$$$$$$$",
"$$$$$$$$$$$$$$$$$$$$$$$$$$$$$$$@    X+$$$$$$$$$$$$$$$$$$$$$$$$",
"$$$$$$$$$$$$$$$$$$$$$$$$$$$$$$$$+     X#$$$$$$$$$$$$$$$$$$$$$$",
"$$$$$$$$$$$$$$$$$$$$$$$$$$$$$$$$$o     X$$$$$$$$$$$$$$$$$$$$$$",
"$$$$$$$$$$$$$$$$$$$$$$$$$$$$$$$$$#      @$$$$$$$$$$$$$$$$$$$$$",
"$$$$$$$$$$$$$$$$$$$$$$$$$$$$$$$$$$o     O$$$$$$$$$$$$$$$$$$$$$",
"$$$$$$$$$$$$$$$$$$$$+ o@$$$$$$$$$$+     o$$$$$$$$$$$$$$$$$$$$$",
"$$$$$$$$$$$$$$$$$$$$#   X#$$$$$$$$+     o$$$$$$$$$$$$$$$$$$$$$",
"$$$$$$$$$$$$$$$$$$$$$.   .@$$$$$$$@     o$$$$$$$$$$$$$$$$$$$$$",
"$$$$$$$$$$$$$$$$$$$$$o    .$$$$$$$@     O$$$$$$$$$$$$$$$$$$$$$",
"$$$$$$$$$$$$$$$$$$$$$+     +$$$$$$@     +$$$$$$$$$$$$$$$$$$$$$",
"$$$$$$$$$$$$$$$$$$$$$@     o$$$$$$@     @$$$$$$$$$$$$$$$$$$$$$",
"$$$$$$$$$$$$$$$$$$$$$$     X$$$$$$@     @$$$$$$$$$$$$$$$$$$$$$",
"$$$$$$$$$$$$$$$$$$$$$$     X$$$$$$@     #$$$$$$$$$$$$$$$$$$$$$",
"$$$$$$$$$$$$$$$$$$$$$$.    X$$$$$$@     $$$$$$$$##$$$$$$$$$$$$",
"$$$$$$$$$$$$$$$$$$$$$$.    X$$$$$$@     $$$$$$#o   X+$$$$$$$$$",
"$$$$$$$$$$$$$$$$$$$$$$     X$$$$$$@    .$$$$@o        O$$$$$$$",
"$$$$$$$$$$$$$$$$$$$$#O     X$$$$$$+    .@+o.           @$$$$$$",
"$$$$$$$$$$$$$$$$$#+o       o$$$$$$+                  .@$$$$$$$",
"$$$$$$$$$$$$$$@OX          o$$$$$$O                X+$$$$$$$$$",
"$$$$$$$$$#Oo.              O$$$$$$o         ..XoO+#$$$$$$$$$$$",
"$$$$$$$$$$                 O$$$$$$X    +##$$$$$$$$$$$$$$$$$$$$",
"$$$$$$$$$$@        XOo     +$$$$$$.    $$$$$$$$$$$$$$$$$$$$$$$",
"$$$$$$$$$$$#OOO++#$$$+     @$$$$$$    .$$$$$$$$$$$$$$$$$$$$$$$",
"$$$$$$$$$$$$$$$$$$$$$O     @$$$$$#    X$$$$$$$$$$$$$$$$$$$$$$$",
"$$$$$$$$$$$$$$$$$$$$$o     #$$$$$#    X$$$$$$$$$$$$$$$$$$$$$$$",
"$$$$$$$$$$$$$$$$$$$$$X     $$$$$$@    X$$$$$$$$$$$$$$$$$$$$$$$",
"$$$$$$$$$$$$$$$$$$$$$.    .$$$@$$@    o$$$$$$$$$$$$$$$$$$$$$$$",
"$$$$$$$$$$$$$$$$$$$$$     X$#X@$$@    o$$$$$$$$$$$$$$$$$$$$$$$",
"$$$$$$$$$$$$$$$$$$$$#     X+.X$$$+    O$$$$$$$$$$$$$$$$$$$$$$$",
"$$$$$$$$$$$$$$$$$$$$+        #$$$+    O$$$$$$$$$$$$$$$$$$$$$$$",
"$$$$$$$$$$$$$$$$$$$$O       O$$$$+    +$$$$$$$$$$$$$$$$$$$$$$$",
"$$$$$$$$$$$$$$$$$$$$X      .$$$$$+    +$$$$$$$$$$$$$$$$$$$$$$$",
"$$$$$$$$$$$$$$$$$$$#       @$$$$$@    +$$$$$$$$$$$$$$$$$$$$$$$",
"$$$$$$$$$$$$$$$$$$+       +$$$$$$@    O$$$$$$$$$$$$$$$$$$$$$$$",
"$$$$$$$$$$$$$$$$$o       o$$$$$$$#    o$$$$$$$$$$$$$$$$$$$$$$$",
"$$$$$$$$$$$$$$$@.       X$$$$$$$$$    X$$$$$$$$$$$$$$$$$$$$$$$",
"$$$$$$$$$$$$$#X        X$$$$$$$$$$.   .$$$$$$$$$$$$$$$$$$$$$$$",
"$$$$$$$$$$$$O         o$$$$$$$$$$$X    oO+@###@O.   X+$$$$$$$$",
"$$$$$$$$$$@.         o$$$$$$$$$$$$O                   .#$$$$$$",
"$$$$$$$$$O          +$$$$$$$$$$$$$#                    .#$$$$$",
"$$$$$$$$#         .@$$$$$$$$$$$$$$$o                    @$$$$$",
"$$$$$$$$$+       o$$$$$$$$$$$$$$$$$$O.                X@$$$$$$",
"$$$$$$$$$$+    .+$$$$$$$$$$$$$$$$$$$$$#+OoXXX..XXooO+#$$$$$$$$",
"$$$$$$$$$$$@X.O#$$$$$$$$$$$$$$$$$$$$$$$$$$$$$$$$$$$$$$$$$$$$$$",
"$$$$$$$$$$$$$$$$$$$$$$$$$$$$$$$$$$$$$$$$$$$$$$$$$$$$$$$$$$$$$$",
"$$$$$$$$$$$$$$$$$$$$$$$$$$$$$$$$$$$$$$$$$$$$$$$$$$$$$$$$$$$$$$",
"$$$$$$$$$$$$$$$$$$$$$$$$$$$$$$$$$$$$$$$$$$$$$$$$$$$$$$$$$$$$$$",
"$$$$$$$$$$$$$$$$$$$$$$$$$$$$$$$$$$$$$$$$$$$$$$$$$$$$$$$$$$$$$$",
"$$$$$$$$$$$$$$$$$$$$$$$$$$$$$$$$$$$$$$$$$$$$$$$$$$$$$$$$$$$$$$",
"$$$$$$$$$$$$$$$$$$$$$$$$$$$$$$$$$$$$$$$$$$$$$$$$$$$$$$$$$$$$$$",
"$$$$$$$$$$$$$$$$$$$$$$$$$$$$$$$$$$$$$$$$$$$$$$$$$$$$$$$$$$$$$$",
"$$$$$$$$$$$$$$$$$$$$$$$$$$$$$$$$$$$$$$$$$$$$$$$$$$$$$$$$$$$$$$",
"$$$$$$$$$$$$$$$$$$$$$$$$$$$$$$$$$$$$$$$$$$$$$$$$$$$$$$$$$$$$$$",
"$$$$$$$$$$$$$$$$$$$$$$$$$$$$$$$$$$$$$$$$$$$$$$$$$$$$$$$$$$$$$$",
"$$$$$$$$$$$$$$$$$$$$$$$$$$$$$$$$$$$$$$$$$$$$$$$$$$$$$$$$$$$$$$",
"$$$$$$$$$$$$$$$$$$$$$$$$$$$$$$$$$$$$$$$$$$$$$$$$$$$$$$$$$$$$$$"
};
