/* XPM */
static char *west[] = {
/* columns rows colors chars-per-pixel */
"64 64 9 1 ",
"  c black",
". c #1D1D1D",
"X c #373737",
"o c gray33",
"O c #747474",
"+ c #959595",
"@ c #B7B7B7",
"# c #DADADA",
"$ c white",
/* pixels */
"$$$$$$$$$$$$$$$$$$$$$$$$$$$$$$$$$$$$$$$$$$$$$$$$$$$$$$$$$$$$$$$$",
"$$$$$$$$$$$$$$$$$$$$$$$$$$$$$$$$$$$$$$$$$$$$$$$$$$$$$$$$$$$$$$$$",
"$$$$$$$$$$$$$$$$$$$$$$$$$$$$$$$$$$$$$$$$$$$$$$$$$$$$$$$$$$$$$$$$",
"$$$$$$$$$$$$$$$$$$$$$$$$$$$$$$$$$$$$$$$$$$$$$$$$$$$$$$$$$$$$$$$$",
"$$$$$$$$$$$$$$$$$$$$$$$$$$$$$$$$$$$$$$$$$$$$$$$$$$$$$$$$$$$$$$$$",
"$$$$$$$$$$$$$$$$$$$$$$$$$$$$$$$$$$$$$$$$$$$$$$$$$$$$$$$$$$$$$$$$",
"$$$$$$$$$$$$$$$$$$$$$$$$$$$$$$$$$$$$$$$$$$$$$$$$$$$$$$$$$$$$$$$$",
"$$$$$$$$$$$$$$$$$$$$$$$$$$$$$$$$$$$$$$$$$$$$$$$$$$$$$$$$$$$$$$$$",
"$$$$$$$$$$$$$$$$$$$$$$$$$$$$$$$$$$$$$$$$$$$$$$$$$$$$$$$$$$$$$$$$",
"$$$$$$$$$$$$$$$$$$$$$$$$$$$$$$$$$$$$$$$$$$$$$$$$$$$$$$$$$$$$$$$$",
"$$$$$$$$$$$$$$$$$$$$$$$$$$$$$$$$$$$$$$$$$$$$$$$$$$$$$$$$$$$$$$$$",
"$$$$$$$$$$$$$$$$$$$$$$$$$$$$$$$$$$$$$$$$$$$$$$$$$$$$$$$$$$$$$$$$",
"$$$$$$$$$$$$$$$$$$$$$$$$$$$$$$$$$$$$$$$@XO@$$$$$$$$$$$$$$$$$$$$$",
"$$$$$$$$$$$$$$$$$$$$$$$$$$$$$$$$$$$$$$O     o@$$$$$$$$$$$$$$$$$$",
"$$$$$$$$$$$$$$$$$$o+#$$$$$$$$$$$$$$#O.        X$$$$$$$$$$$$$$$$$",
"$$$$$$$$$$$$$$$$$$#X .XOO++@@@++OX.            +$$$$$$$$$$$$$$$$",
"$$$$$$$$$$$$$$$$$$$$o                         X#$$$$$$$$$$$$$$$$",
"$$$$$$$$$$$$$$$$$$$$$@X                     .+$$$$$$$$$$$$$$$$$$",
"$$$$$$$$$$$$$$$$$$$$$$$@X                 X+$$$$$$$$$$$$$$$$$$$$",
"$$$$$$$$$$$$$$$$$$$$$$$$$@X            .o@$$$$$$$$$$$$$$$$$$$$$$",
"$$$$$$$$$$$$$$$$$$$$$$$$$$$#o        o@$$$$$$$$$$$$$$$$$$$$$$$$$",
"$$$$$$$$$$$$$$$$$$$$$$$$$$$$$+     o#$$$$$$$$$$$$$$$$$$$$$$$$$$$",
"$$$$$$$$$$$$$$$$$$$$$$$$$$$$@.     .XO#$$$$$$$$$$$$$$$$$$$$$$$$$",
"$$$$$$$$$$$$$$$$$$$$$$$$$$$+ .o+$#X    +$$$$$$$$$$$$$$$$$$$$$$$$",
"$$$$$$$$$$$$$$$$$$$$#X+$$$@+@$$$$$$.    @$$$$$$$$$$$$$$$$$$$$$$$",
"$$$$$$$$$$$$$$$$$$$$$. X@$$$$$$$$$$o    X$$$$$$$$$$$$$$$$$$$$$$$",
"$$$$$$$$$$$$$$$$$$$$$+   o$$$$$$$$$o    .#@+OOO+@$$$$$$$$$$$$$$$",
"$$$$$$$$$$$$$$$$$$$$$$    X$$$$$$@O               X@$$$$$$$$$$$$",
"$$$$$$$$$$$$$$$$$$$$$$o    o#@OX                    X@$$$$$$$$$$",
"$$$$$$$$$$$$$$$$$$$$$$+                      .X.      O$$$$$$$$$",
"$$$$$$$$$$$$$$$$$$$$$$#                  .o+#$$$#o     X$$$$$$$$",
"$$$$$$$$$$$$$$$$$$$$$+.                 O$$$$$$$$$X     O$$$$$$$",
"$$$$$$$$$$$#$$$$$$$$O         .Xo      X$$$$$$$$$$O     .$$$$$$$",
"$$$$$$$$$$o .#$$$$$O  .      $$$#      #$$$$$$$$$$o      #$$$$$$",
"$$$$$$$$$$o  .@$$$# O$$@     $$$o     O$$$$$$$$$$$.      $$$$$$$",
"$$$$$$$$$$+    O$$+o$$$$.    $$#     .$$$$$$$$$$$+      .$$$$$$$",
"$$$$$$$$$$$     X#OO$$$$O   .$$X     #$$$$$$$$$$#.      O$$$$$$$",
"$$$$$$$$$$$O      .O$$$$#.  X$o     o#$$$$$$$$$$X       #$$$$$$$",
"$$$$$$$$$$$$.       @$$$$@.X@X        X#$$$$$$$o       o$$$$$$$$",
"$$$$$$$$$$$$@       X$$$$$#O           .@$$$$$o        #$$$$$$$$",
"$$$$$$$$$$$$$+       +$#+X              .$$$#o        O$$$$$$$$$",
"$$$$$$$$$$$$$$+      X#                  ##+.        X$$$$$$$$$$",
"$$$$$$$$$$$$$$$@.     #.                             #$$$$$$$$$$",
"$$$$$$$$$$$$$$$$#o    ##OX.  ..XXoOO+@@+            @$$$$$$$$$$$",
"$$$$$$$$$$$$$$$$$$$@+@$$$$$$$$$$$$$$$$$$.          +$$$$$$$$$$$$",
"$$$$$$$$$$$$$$$$$$$$$$$$$$$$$$$$$$$$$$$$@        .@$$$$$$$$$$$$$",
"$$$$$$$$$$$$$$$$$$$$$$$$$$$$$$$$$$$$$$$$$@     .+$$$$$$$$$$$$$$$",
"$$$$$$$$$$$$$$$$$$$$$$$$$$$$$$$$$$$$$$$$$$#ooO@$$$$$$$$$$$$$$$$$",
"$$$$$$$$$$$$$$$$$$$$$$$$$$$$$$$$$$$$$$$$$$$$$$$$$$$$$$$$$$$$$$$$",
"$$$$$$$$$$$$$$$$$$$$$$$$$$$$$$$$$$$$$$$$$$$$$$$$$$$$$$$$$$$$$$$$",
"$$$$$$$$$$$$$$$$$$$$$$$$$$$$$$$$$$$$$$$$$$$$$$$$$$$$$$$$$$$$$$$$",
"$$$$$$$$$$$$$$$$$$$$$$$$$$$$$$$$$$$$$$$$$$$$$$$$$$$$$$$$$$$$$$$$",
"$$$$$$$$$$$$$$$$$$$$$$$$$$$$$$$$$$$$$$$$$$$$$$$$$$$$$$$$$$$$$$$$",
"$$$$$$$$$$$$$$$$$$$$$$$$$$$$$$$$$$$$$$$$$$$$$$$$$$$$$$$$$$$$$$$$",
"$$$$$$$$$$$$$$$$$$$$$$$$$$$$$$$$$$$$$$$$$$$$$$$$$$$$$$$$$$$$$$$$",
"$$$$$$$$$$$$$$$$$$$$$$$$$$$$$$$$$$$$$$$$$$$$$$$$$$$$$$$$$$$$$$$$",
"$$$$$$$$$$$$$$$$$$$$$$$$$$$$$$$$$$$$$$$$$$$$$$$$$$$$$$$$$$$$$$$$",
"$$$$$$$$$$$$$$$$$$$$$$$$$$$$$$$$$$$$$$$$$$$$$$$$$$$$$$$$$$$$$$$$",
"$$$$$$$$$$$$$$$$$$$$$$$$$$$$$$$$$$$$$$$$$$$$$$$$$$$$$$$$$$$$$$$$",
"$$$$$$$$$$$$$$$$$$$$$$$$$$$$$$$$$$$$$$$$$$$$$$$$$$$$$$$$$$$$$$$$",
"$$$$$$$$$$$$$$$$$$$$$$$$$$$$$$$$$$$$$$$$$$$$$$$$$$$$$$$$$$$$$$$$",
"$$$$$$$$$$$$$$$$$$$$$$$$$$$$$$$$$$$$$$$$$$$$$$$$$$$$$$$$$$$$$$$$",
"$$$$$$$$$$$$$$$$$$$$$$$$$$$$$$$$$$$$$$$$$$$$$$$$$$$$$$$$$$$$$$$$",
"$$$$$$$$$$$$$$$$$$$$$$$$$$$$$$$$$$$$$$$$$$$$$$$$$$$$$$$$$$$$$$$$"
};
